<svg width="200" height="50" viewBox="0 0 200 50" fill="none" xmlns="http://www.w3.org/2000/svg">
  <rect width="50" height="50" rx="10" fill="#0070f3"/>
  <path d="M15 15H35V20H15V15Z" fill="white"/>
  <path d="M15 23H35V28H15V23Z" fill="white"/>
  <path d="M15 31H35V36H15V31Z" fill="white"/>
  <path d="M65 15H60V35H65V15Z" fill="white"/>
  <path d="M75 15C70.5817 15 67 18.5817 67 23V27C67 31.4183 70.5817 35 75 35C79.4183 35 83 31.4183 83 27V23C83 18.5817 79.4183 15 75 15ZM78 27C78 28.6569 76.6569 30 75 30C73.3431 30 72 28.6569 72 27V23C72 21.3431 73.3431 20 75 20C76.6569 20 78 21.3431 78 23V27Z" fill="white"/>
  <path d="M95 15C90.5817 15 87 18.5817 87 23V27C87 31.4183 90.5817 35 95 35C99.4183 35 103 31.4183 103 27V23C103 18.5817 99.4183 15 95 15ZM98 27C98 28.6569 96.6569 30 95 30C93.3431 30 92 28.6569 92 27V23C92 21.3431 93.3431 20 95 20C96.6569 20 98 21.3431 98 23V27Z" fill="white"/>
  <path d="M115 15H110V35H115V27H120V35H125V15H120V22H115V15Z" fill="white"/>
  <path d="M135 15H130V35H145V30H135V15Z" fill="white"/>
  <path d="M155 15H150V35H165V30H155V15Z" fill="white"/>
  <path d="M175 15C170.5817 15 167 18.5817 167 23V27C167 31.4183 170.5817 35 175 35C179.4183 35 183 31.4183 183 27V23C183 18.5817 179.4183 15 175 15ZM178 27C178 28.6569 176.6569 30 175 30C173.3431 30 172 28.6569 172 27V23C172 21.3431 173.3431 20 175 20C176.6569 20 178 21.3431 178 23V27Z" fill="white"/>
  <path d="M195 15H185V35H190V30H195C197.7614 30 200 27.7614 200 25V20C200 17.2386 197.7614 15 195 15ZM195 25H190V20H195V25Z" fill="white"/>
</svg>

